<svg xmlns="http://www.w3.org/2000/svg" width="1024" height="1024" viewBox="0 0 1024 1024">
  <g transform="translate(0 -2.2573) scale(7.1320119)">
    <defs>
      <linearGradient id="worldmap" gradientUnits="userSpaceOnUse" x1="0" y1="26" x2="0" y2="118">
        <stop offset="0" stop-color="#0094C2" />
        <stop offset="1" stop-color="#004797" />
      </linearGradient>
    </defs>
    <g>
    <path fill="url(#worldmap)" d="M62 26c.81 1.69.81 1.69 1 4c-3.16 3.83-6.84 6.39-11 9c-1.87-.62-1.87-.62-4-2c-.31-.97-.62-1.94-.94-2.94C46 31 46 31 43.38 29.13c-.79-.38-1.57-.75-2.38-1.13c.6 3.36 1.85 5.38 4 8c-.66.33-1.32.66-2 1c.33 4 .67 8 1 12c-.99-.66-1.98-1.32-3-2c-1.8 1.58-3.59 3.16-5.37 4.75c-.51.44-1.02.89-1.54 1.34C31.21 55.67 29.77 57.46 28 61c-2.97-.33-5.94-.66-9-1c.33 1.65.66 3.3 1 5c1.32 0 2.64 0 4 0c1.26 2.91 2 4.8 2 8c.68-.21 1.36-.41 2.06-.62c4.86-.63 8.57.67 12.57 3.43C43.16 78.14 45.6 80.53 48 83c.66.66 1.32 1.32 2 2c-.14 2.53-.14 2.53-.69 5.5c-.17.98-.34 1.96-.51 2.97C48 96 48 96 45 98c-1.15 2.55-2.03 5.14-2.94 7.79c-.35.73-.7 1.46-1.06 2.21c-.99.33-1.98.66-3 1c.33 3.33.67 6.67 1 10c-4-2-4-2-5.23-4.56c-1.11-4.96-1.13-9.83-1.16-14.9C32.45 94.35 31.69 91.9 28 88c-1.31-3.6-2.04-6.29-1.81-10.12C25.92 73.84 23.92 72.62 21 70c0-.66 0-1.32 0-2c-.93-.27-1.86-.54-2.81-.81C14.43 65.79 12.77 64.55 11 61c.07-3.54.17-7.08.39-10.62c.12-4.28-.02-5.89-2.7-9.43C6 39 6 39 2.69 39.19C1.8 39.46.91 39.72 0 40c1.67-1.67 3.33-3.33 5-5c.28-.39.28-.39 1.69-2.37c3.31-2.34 5.63-1.38 9.52-.79c4.07.24 7.45-.94 11.31-2.15c2.88-.8 5.5-.69 8.48-.69c.6-.49 1.2-.99 1.81-1.5c3.04-2.08 5.43-1.67 9.03-1.54C49 26 49 26 51.56 25.44c3.62-.65 6.81.01 10.44.56Z" />
    <path fill="url(#worldmap)" d="M97 28c6.71.61 13.4 1.4 20.09 2.27c3.86.5 7.71.88 11.6 1.17c3.73.36 6.43.97 9.31 3.56c0 1.32 0 2.64 0 4c-.99 0-1.98 0-3 0c.33.5.33.5 2 3c-.33.99-.66 1.98-1 3c-2-3-2-3-2-6c-2.31.66-4.62 1.32-7 2c1.65 1.32 3.3 2.64 5 4c-.58 2.39-1.22 4.67-2 7c.33.33.33.33 2 2c.66-1.65 1.32-3.3 2-5c.66.33 1.32.66 2 1c.63 3.06.63 3.06 1 6c-2.13 1.3-3.48 2.03-6 1.88c-2.6-1.14-4.12-2.79-6-4.88c.33.7.66 1.4 1 2.13c1.09 3.13 1.15 5.58 1 8.87c-1.65.33-3.3.66-5 1c.35.74.7 1.49 1.06 2.25c.99 2.88.97 3.96-.06 6.75c-2.75-.06-2.75-.06-6-1c-1.77-2.23-2.77-4.4-4-7c-1.5 1.06-1.5 1.06-3 3c-.19 3.69-.19 3.69 0 7c-.66 0-1.32 0-2 0c-1.51-2.12-1.51-2.12-3.12-4.87c-.54-.91-1.08-1.81-1.64-2.75C102 66 102 66 102 64c-.99 0-1.98 0-3 0c-.6.97-1.2 1.94-1.81 2.94C95 70 95 70 91.75 70.88C91.3 70.9 91.3 70.9 89 71c0 .66 0 1.32 0 2c.83-.16.83-.16 5-1c-.59 3.15-1.54 4.85-3.62 7.25C88.76 81.38 88 82.43 88 85.13c.12.7.25 1.4.38 2.12c.2 1.24.41 2.48.62 3.75c-1.31 1.5-1.31 1.5-3 3c-.63 2-1.06 4-1.47 6.06C84 102 84 102 82 105c-2.63.69-2.63.69-5 1c-3.18-9.27-3.67-18.3-4-28c-3.41-.76-5.65-1.12-9 0c-4.87-4.51-4.87-4.51-5.21-8.45C59.2 64.54 60.25 61.24 63 57c.36-2.33.69-4.66 1-7c.66-.66 1.32-1.32 2-2c.13-2.62.13-2.62 0-5c.43-.06.43-.06 2.63-.37C71.9 42.02 74.87 41.12 78 40c-.66-.66-1.32-1.32-2-2c-.33.5-.33.5-2 3c-.99 0-1.98 0-3 0c-.31-2.25-.31-2.25 0-5c2.06-2.37 2.06-2.37 5-4c3.64.19 6.55.85 10 2c2.01-1.32 4.01-2.66 6-4c1.32 0 2.64 0 4 0c.33-.66.66-1.32 1-2Z" />
    <path fill="url(#worldmap)" d="M127 76c.33 0 .66 0 1 0c.33 2.31.66 4.62 1 7c-1.32-.33-2.64-.66-4-1c0-4 0-4 2-6Z" />
    <path fill="url(#worldmap)" d="M117 78c1.75.06 1.75.06 4 1c1.6 2.24 2.75 4.54 4 7c-1.32 0-2.64 0-4 0c-4-5.11-4-5.11-4-8Z" />
    <path fill="url(#worldmap)" d="M135 81c3.69.5 5.6 1.1 8 4c-.33.66-.66 1.32-1 2c-.33.99-.66 1.98-1 3c.66.66 1.32 1.32 2 2c.99 4.61.85 8.56-1.57 12.66c-1.73 2.21-3.5 4.3-5.43 6.34c-2-3-2-3-3-7c-2.97.33-5.94.66-9 1c-.33-.66-.66-1.32-1-2c.63-1.68 1.3-3.35 2-5c0-.66 0-1.32 0-2c1.64-1.73 1.64-1.73 3.81-3.62c.36-.32.36-.32 2.15-1.92C133 89 133 89 136 89c0 .99 0 1.98 0 3c.66 0 1.32 0 2 0c-.26-2.34-.59-4.68-1-7c-.66-.33-1.32-.66-2-1c0-.99 0-1.98 0-3Z" />
    </g>
  </g>
</svg>
